<svg width="30" height="28" viewBox="0 0 30 28" fill="none" xmlns="http://www.w3.org/2000/svg">
<path d="M21 10.4445C21 8.85322 20.3679 7.3271 19.2426 6.20188C18.1174 5.07666 16.5913 4.44452 15 4.44452C13.4087 4.44452 11.8826 5.07666 10.7574 6.20188C9.63214 7.3271 9 8.85322 9 10.4445C9 17.4445 6 19.4445 6 19.4445H24C24 19.4445 21 17.4445 21 10.4445Z" stroke="white" stroke-width="2" stroke-linecap="round" stroke-linejoin="round"/>
<path d="M16.73 23.4445C16.5542 23.7476 16.3019 23.9992 15.9982 24.174C15.6946 24.3489 15.3504 24.441 15 24.441C14.6496 24.441 14.3054 24.3489 14.0018 24.174C13.6982 23.9992 13.4458 23.7476 13.27 23.4445" stroke="white" stroke-width="2" stroke-linecap="round" stroke-linejoin="round"/>
<circle cx="25" cy="4" r="3" fill="#FF0000"/>
</svg>
